<?xml version="1.0" encoding="utf-8"?>
<!-- Generator: Adobe Illustrator 18.1.1, SVG Export Plug-In . SVG Version: 6.00 Build 0)  -->
<!DOCTYPE svg PUBLIC "-//W3C//DTD SVG 1.1//EN" "http://www.w3.org/Graphics/SVG/1.1/DTD/svg11.dtd">
<svg version="1.1" id="Layer_1" xmlns="http://www.w3.org/2000/svg" xmlns:xlink="http://www.w3.org/1999/xlink" x="0px" y="0px"
	 viewBox="0 0 600 600" enable-background="new 0 0 600 600" xml:space="preserve">
<path d="M280.6,596.8c-42.2,0.7-69.5-10.9-93.3-30.7c-54.4-45.3-108.3-91-162.4-136.7c-4.4-3.7-8.5-8-11.8-12.7
	c-5.9-8.2-8.8-17.5-2.4-26.7c6.4-9.2,16.3-13.3,26.9-10.6c9.7,2.5,19.1,7.3,27.9,12.2c16.1,9,31.6,19,47.7,28.1
	c4.1,2.3,9.3,2.9,13.9,4.3c-0.5-4.8-0.1-9.9-1.8-14.3C92.5,320.2,59.3,231,26.3,141.7c-8.3-22.6,5.9-42.1,28.2-38.9
	c11.8,1.7,18.3,9.3,22.2,20.1c21,57,42.1,114,63.2,170.9c0.5,1.3,0.9,2.6,1.4,3.9c2.5,7.9,7.3,13.1,16,9.8c8.3-3.2,7.7-10.2,5-17.3
	c-9.6-25.9-19.2-51.8-28.8-77.8c-19.1-51.5-38.2-103.1-57.2-154.6c-5.2-14.3-2.6-25.5,7.3-33.2c14.9-11.7,35.4-5.5,42.4,13.2
	c18.5,49.6,36.8,99.2,55.2,148.8c10.5,28.5,21,57,31.5,85.5c2.4,6.5,5.8,12,13.9,10.7c7.7-1.2,10.6-8.3,7.1-17.9
	c-10.8-29.5-21.7-58.9-32.6-88.4c-13.6-36.8-27.3-73.6-40.8-110.5c-4.9-13.4-0.9-25.6,9.8-32.6c10.1-6.6,23.7-6.2,32.3,2.1
	c4.2,4.1,7.4,9.8,9.5,15.4c23.6,63.3,47,126.7,70.4,190.1c5.2,14.2,9.6,18,17.5,15.5c7.8-2.5,8.8-8.6,3.5-22.7
	c-17.1-46.1-34.1-92.2-51.2-138.3c-4.2-11.4-3-21.7,5.9-30.2c8.4-8.1,19-10.7,29.2-5.1c6.1,3.4,12.4,9.5,14.7,15.8
	C344.8,190.6,387.9,305,429,420c16.2,45.3,4.7,100.8-40.1,135.5C354,582.6,313.5,594.6,280.6,596.8z"/>
<path d="M385.1,256.3c-7.1-19.2-13.8-36.7-19.9-54.3c-0.9-2.7,0.7-6.6,1.9-9.7c16-43.5,32.1-87.1,48.4-130.5
	c3-8.1,3.4-15.4-3.8-21.4c-9.3-7.8-21.9-3.5-26.8,9.4c-11.3,30-22.2,60.2-33.4,90.3c-1.3,3.5-2.8,6.9-4.9,12.3
	c-4.8-13-9.3-24.1-12.9-35.6c-1-3.2,0.3-7.4,1.5-10.8c7.7-21.5,15.6-43,23.6-64.4C372.4,5.4,411.4-1.4,437,27.7
	c0.6,0.7,1.4,1.3,2.5,2.3c8.2-18.2,21.2-29.6,41.7-29.9c30.5-0.5,51.3,27.7,42,56.8c-2.4,7.4-5.2,14.7-8.2,22.9c4,0,6.9,0.2,9.7,0
	c34.6-2.2,56.8,26.7,44.9,59.4c-26.3,71.8-52.9,143.4-79.4,215.1c-1.5,4.1-2.9,8.2-5.1,14.6c10.8-6.3,19.7-11.6,28.8-16.6
	c14.7-8.2,29.9-13.4,47-7.4c25.1,8.8,35,34,21.7,57.1c-3.5,6.1-8.1,12-13.5,16.6c-45.8,39-91.8,77.8-137.8,116.6
	c-0.7,0.6-1.6,0.8-1.4,0.7c5.4-15.3,10.8-31.3,16.7-47.1c1.1-2.9,4.3-5.1,6.8-7.3c31-26.4,62-52.6,93-79c3.6-3.1,8-6.2,9.8-10.3
	c2.2-5.1,4.8-13.7,2.5-16.2c-3.9-4.1-12-6.5-17.8-5.8c-7.1,0.9-13.8,5.5-20.3,9.2c-16.6,9.5-32.9,19.4-49.4,29.1
	c-6.7,4-13.8,7.1-20.9,1.3c-7.7-6.4-4.5-14.1-1.7-21.6c31-83.8,62.1-167.7,93.1-251.5c1.3-3.5,2.7-7,3.6-10.7
	c1.9-8.5-1.2-15.1-9.1-18.4c-8.2-3.4-15.5-1-20.4,6.6c-1.8,2.8-2.8,6.2-4,9.4c-19.8,53.4-39.5,106.9-59.6,160.2
	c-2.2,5.7-6.1,11.7-10.9,15.3c-6.8,5-15.1,4.3-21.9-1.2c-7.9-6.4-9-14.7-5.5-24c18.1-48.6,36.1-97.3,54.1-145.9
	c9.2-25,18.5-49.9,27.7-74.9c4.8-13.1,1.8-21.9-8.5-25.5c-9.4-3.3-17.7,1.8-22.2,14.1C439.5,110,414.3,178.1,389,246.3
	C388,249,386.9,251.7,385.1,256.3z"/>
</svg>
