<?xml version="1.0" encoding="utf-8"?>
<!-- Generator: Adobe Illustrator 18.1.1, SVG Export Plug-In . SVG Version: 6.00 Build 0)  -->
<!DOCTYPE svg PUBLIC "-//W3C//DTD SVG 1.1//EN" "http://www.w3.org/Graphics/SVG/1.1/DTD/svg11.dtd">
<svg version="1.1" id="Layer_1" xmlns:sketch="http://www.bohemiancoding.com/sketch/ns"
	 xmlns="http://www.w3.org/2000/svg" xmlns:xlink="http://www.w3.org/1999/xlink" x="0px" y="0px" viewBox="-109 41 60 60"
	 enable-background="new -109 41 60 60" xml:space="preserve">
<title>USBcable</title>
<desc>Created with Sketch.</desc>
<g id="colored" sketch:type="MSPage">
	<g id="Tech_sliced" transform="translate(-240.000000, -120.000000)" sketch:type="MSLayerGroup">
	</g>
	<g id="Tech" transform="translate(-238.000000, -113.000000)" sketch:type="MSLayerGroup">
		<g id="USBcable" transform="translate(241.000000, 123.000000)" sketch:type="MSShapeGroup">
			<rect id="Rectangle-523" x="-97" y="60" fill="#43CFCF" stroke="#565656" stroke-width="2" width="18" height="18"/>
			<rect id="Rectangle-523_1_" x="-67" y="42" fill="#43CFCF" stroke="#565656" stroke-width="2" width="8" height="8"/>
			<rect id="Rectangle-524" x="-109" y="61" fill="#EAEAEA" stroke="#565656" stroke-width="2" width="9" height="6"/>
			<rect id="Rectangle-525" x="-109" y="71" fill="#EAEAEA" stroke="#565656" stroke-width="2" width="9" height="6"/>
			<path id="Line" fill="none" stroke="#565656" stroke-width="2" stroke-linecap="square" d="M-104,64h-1"/>
			<path id="Line_1_" fill="none" stroke="#565656" stroke-width="2" stroke-linecap="square" d="M-104,74h-1"/>
			<path id="Oval-533" fill="none" stroke="#565656" stroke-width="2" d="M-63,69c4.4,0,8-3.4,8-7.5s-3.6-7.5-8-7.5"/>
			<path id="Oval-533_1_" fill="none" stroke="#565656" stroke-width="2" d="M-79,46c-2.2,0-4,1.8-4,4s1.8,4,4,4"/>
			<path id="Line_2_" fill="none" stroke="#565656" stroke-width="2" stroke-linecap="square" d="M-78.5,69H-64"/>
			<path id="Line_3_" fill="none" stroke="#565656" stroke-width="2" stroke-linecap="square" d="M-78,54h14"/>
			<path id="Line_4_" fill="none" stroke="#565656" stroke-width="2" stroke-linecap="square" d="M-78,46h10"/>
			<rect id="Rectangle-527" x="-59" y="44" fill="#EAEAEA" stroke="#565656" stroke-width="2" width="4" height="4"/>
		</g>
	</g>
</g>
</svg>
