<?xml version="1.0" encoding="utf-8"?>
<!-- Generator: Adobe Illustrator 18.1.1, SVG Export Plug-In . SVG Version: 6.00 Build 0)  -->
<!DOCTYPE svg PUBLIC "-//W3C//DTD SVG 1.1//EN" "http://www.w3.org/Graphics/SVG/1.1/DTD/svg11.dtd">
<svg version="1.1" id="Layer_1" xmlns:sketch="http://www.bohemiancoding.com/sketch/ns"
	 xmlns="http://www.w3.org/2000/svg" xmlns:xlink="http://www.w3.org/1999/xlink" x="0px" y="0px" viewBox="-109 41 60 60"
	 enable-background="new -109 41 60 60" xml:space="preserve">
<title>3D</title>
<desc>Created with Sketch.</desc>
<g id="colored" sketch:type="MSPage">
	<g id="Science_sliced" transform="translate(-720.000000, 0.000000)" sketch:type="MSLayerGroup">
	</g>
	<g id="Science" transform="translate(-716.000000, 2.000000)" sketch:type="MSLayerGroup">
		<g id="_x33_D" transform="translate(721.000000, 3.000000)" sketch:type="MSShapeGroup">
			<g id="Rectangle-44">
				<path fill="#EB7439" d="M-109,56.2c0-0.1,0.1-0.2,0.2-0.2h35.6c0.1,0,0.2,0.1,0.2,0.2v35.6c0,0.1-0.1,0.2-0.2,0.2h-35.6
					c-0.1,0-0.2-0.1-0.2-0.2V56.2z"/>
				<path fill="none" stroke="#565656" stroke-width="2" stroke-linecap="round" d="M-109,56.2c0-0.1,0.1-0.2,0.2-0.2h35.6
					c0.1,0,0.2,0.1,0.2,0.2v35.6c0,0.1-0.1,0.2-0.2,0.2h-35.6c-0.1,0-0.2-0.1-0.2-0.2V56.2z"/>
			</g>
			<g id="Rectangle-47">
				<path fill="none" stroke="#565656" stroke-width="2" stroke-linecap="round" d="M-94,41.2c0-0.1,0.1-0.2,0.2-0.2h35.6
					c0.1,0,0.2,0.1,0.2,0.2v35.6c0,0.1-0.1,0.2-0.2,0.2h-35.6c-0.1,0-0.2-0.1-0.2-0.2V41.2z"/>
			</g>
			<path id="Rectangle-45" fill="#A3DB78" stroke="#565656" stroke-width="2" stroke-linecap="round" stroke-linejoin="round" d="
				M-94,41l-15,15h36l15-15H-94z"/>
			<path id="Rectangle-46" fill="none" stroke="#565656" stroke-width="2" stroke-linecap="round" stroke-linejoin="round" d="
				M-94,77l-15,15h36l15-15H-94z"/>
		</g>
	</g>
</g>
</svg>
