<?xml version="1.0" encoding="utf-8"?>
<!-- Generator: Adobe Illustrator 18.1.1, SVG Export Plug-In . SVG Version: 6.00 Build 0)  -->
<!DOCTYPE svg PUBLIC "-//W3C//DTD SVG 1.1//EN" "http://www.w3.org/Graphics/SVG/1.1/DTD/svg11.dtd">
<svg version="1.1" id="Layer_1" xmlns:sketch="http://www.bohemiancoding.com/sketch/ns"
	 xmlns="http://www.w3.org/2000/svg" xmlns:xlink="http://www.w3.org/1999/xlink" x="0px" y="0px" viewBox="-109 41 60 60"
	 enable-background="new -109 41 60 60" xml:space="preserve">
<title>Solarsystem</title>
<desc>Created with Sketch.</desc>
<g id="colored" sketch:type="MSPage">
	<g id="Science_sliced" sketch:type="MSLayerGroup">
	</g>
	<g id="Science" transform="translate(4.000000, 2.000000)" sketch:type="MSLayerGroup">
		<g id="Solarsystem" transform="translate(0.000000, 2.000000)" sketch:type="MSShapeGroup">
			<path id="Oval-88" fill="none" stroke="#565656" stroke-width="2" stroke-linecap="round" stroke-linejoin="round" d="
				M-65.9,83.8C-61.6,79.5-59,73.6-59,67c0-13.3-10.7-24-24-24s-24,10.7-24,24s10.7,24,24,24c3.1,0,5.8-0.5,8.5-1.5"/>
			<path id="Oval-89" fill="none" stroke="#565656" stroke-width="2" stroke-linecap="round" stroke-linejoin="round" d="
				M-71.4,57.5C-74.1,54.1-78.3,52-83,52c-8.3,0-15,6.7-15,15s6.7,15,15,15s15-6.7,15-15c0-0.8-0.1-1.2-0.2-2"/>
			
				<circle id="Oval-92" fill="#FE6561" stroke="#565656" stroke-width="2" stroke-linecap="round" stroke-linejoin="round" cx="-70" cy="87" r="5"/>
			
				<circle id="Oval-95" fill="#43CFCF" stroke="#565656" stroke-width="2" stroke-linecap="round" stroke-linejoin="round" cx="-69.5" cy="61.5" r="3.5"/>
			
				<circle id="Oval-90" fill="#EB7439" stroke="#565656" stroke-width="2" stroke-linecap="round" stroke-linejoin="round" cx="-83" cy="67" r="7"/>
			<path id="Line" fill="none" stroke="#565656" stroke-width="2" stroke-linecap="round" d="M-63.5,47.5l6-6"/>
			<path id="Line-43" fill="none" stroke="#565656" stroke-width="2" stroke-linecap="round" d="M-108.5,92.5l6-6"/>
		</g>
	</g>
</g>
</svg>
