<svg id="Layer_1" data-name="Layer 1" xmlns="http://www.w3.org/2000/svg" viewBox="0 0 38.29 38.29"><defs><style>.cls-1{fill:#fff;}.cls-2{fill:#dadada;}.cls-3{fill:#f5c1bc;}.cls-4{fill:#3544b1;}.cls-5{fill:#8e755e;}.cls-6{fill:#f1f2f7;}</style></defs><title>heartArtboard 1</title><circle class="cls-1" cx="19.15" cy="19.15" r="18.73"/><path class="cls-2" d="M5.72,16.28c.52,2.83,3,6.1,3,6.1l10.84-11s-3.12-3.33-5.32-3.32-7.07,2.31-7.07,2.31-2,3.07-1.45,5.9"/><path class="cls-3" d="M29.9,22.05s2.48-3.3,2.54-5.36-2.19-6.41-2.19-6.41S27.69,8.06,25,8.45s-5.47,3-5.47,3Z"/><polyline class="cls-4" points="19.41 32.67 29.88 22.06 8.94 22.29 19.41 32.67"/><polygon class="cls-5" points="8.72 22.31 19.51 11.54 19.42 22.16 8.72 22.31"/><polygon class="cls-6" points="29.9 22.05 19.56 11.49 19.47 22.16 29.9 22.05"/></svg>